/* XPM */
static char *result[] = {
/* columns rows colors chars-per-pixel */
"64 64 3 1 ",
"  c black",
". c #5FAB33",
"X c #60DB18",
/* pixels */
"................................................................",
"................................................................",
"................................................................",
"................................................................",
"................................................................",
"................................................................",
"................................................................",
"................................................................",
".......     ....................................................",
"....... XXX    .................................................",
"........          ..............................................",
"........  XXX  XXX  .............   ............................",
"......... XXXXX  XX  .........    X     ........................",
".......... XXXXX  XXX ......   XXXXXXXX    .....................",
"...........  XXXX  XXX ....  XXXXXXX   XX  .....................",
"............  XXXX  XX ...  XXXXXXX  XXX  ......................",
".............   XXX    .. XXXXXXX  XXXX  .......................",
"...............    XX     XXXXX   XXXX  ........................",
"..................    X  XXXXX  XXXXXX .........................",
".....................   XXX   XXXXXXX  .........................",
"......................      XXXXXXXXX ..........................",
"....................... XXXXXXXXXXXX ...........................",
"........................ XXXXXXXXXX ............................",
".........................  XXXXXX  .............................",
"..........................   XX   ..............................",
"............................   .................................",
"................................................................",
"................................................................",
"................................................................",
"................................................................",
"................................................................",
"................................................................",
"................................................................",
"................................................................",
"................................................................",
"................................................................",
"................................................................",
"................................................................",
"................................................................",
"................................................................",
"........................           .............................",
"......................  XXXXXXXXXXX   ............           ...",
".....................          XXXXXX  .........   XXXXX    ....",
".....................    XXXXXX   XXXX  .......  XXXXX  X  .....",
".........................  XXXXXX  XXXX  ..... XXXXX  XXX ......",
"..........................  XXXXXX  XXXX .... XXXX  XXXX  ......",
"............................  XXXXX  XXXX .. XXX   XXXXX .......",
".............................  XXXXX  XXX    XX  XXXXXX  .......",
"............................... XXXXX   XX  XX XXXXXXX  ........",
"................................  XXXXX    X   XXXXXX  .........",
".................................            XXXXXX  ...........",
".........................................          .............",
"................................................................",
"................................................................",
"................................................................",
"................................................................",
"................................................................",
"................................................................",
"................................................................",
"................................................................",
"................................................................",
"................................................................",
"................................................................",
"................................................................"
};