/* XPM */
static char *_393aff005ca4388b3d6dd9f09d63e03AAWswgzMDz71ubNG[] = {
/* columns rows colors chars-per-pixel */
"64 64 143 2 ",
"   c #000001",
".  c #0C0000",
"X  c #000E0C",
"o  c #120000",
"O  c #0E110C",
"+  c #13110D",
"@  c #1B140E",
"#  c #1E1610",
"$  c #1E1812",
"%  c #240000",
"&  c #2C0000",
"*  c #2C0A00",
"=  c #3B0000",
"-  c #3B0C00",
";  c #21170F",
":  c #32190F",
">  c #231A13",
",  c #2C1B11",
"<  c #331A10",
"1  c #381C11",
"2  c #25221E",
"3  c #2A241E",
"4  c #312016",
"5  c #3A2016",
"6  c #37231A",
"7  c #392219",
"8  c #362820",
"9  c #711C00",
"0  c #452113",
"q  c #49271B",
"w  c #542716",
"e  c #582917",
"r  c #5D2D1C",
"t  c #7D2700",
"y  c #632E1A",
"u  c #6C2F1A",
"i  c #6E301A",
"p  c #74341D",
"a  c #79371E",
"s  c #7D391F",
"d  c #5F3120",
"f  c #633322",
"g  c #6A3522",
"h  c #7F3A20",
"j  c #5E4238",
"k  c #61453B",
"l  c #664A3F",
"z  c #4B514E",
"x  c #5C504A",
"c  c #475250",
"v  c #4F5451",
"b  c #624C43",
"n  c #6C4D42",
"m  c #665047",
"M  c #63534B",
"N  c #842D00",
"B  c #8B3400",
"V  c #853C1F",
"C  c #9E3F1A",
"Z  c #823C21",
"A  c #8A3E21",
"S  c #AB4213",
"D  c #A1411B",
"F  c #B0481F",
"G  c #954425",
"H  c #954827",
"J  c #994B29",
"K  c #A74A27",
"L  c #A84A27",
"P  c #AE4E2A",
"I  c #B14F29",
"U  c #AE512E",
"Y  c #B5512A",
"T  c #BB532B",
"R  c #B7592D",
"E  c #BB5631",
"W  c #B45B32",
"Q  c #BB5D33",
"!  c #CC4C09",
"~  c #E15B1A",
"^  c #C15927",
"/  c #C15E2F",
"(  c #D25621",
")  c #D05929",
"_  c #C05E33",
"`  c #CE5C30",
"'  c #D35D30",
"]  c #C56235",
"[  c #C96336",
"{  c #C46339",
"}  c #C96539",
"|  c #CF683B",
" . c #DE6635",
".. c #DF6739",
"X. c #E4632D",
"o. c #F2722E",
"O. c #E16636",
"+. c #E36937",
"@. c #E36B3C",
"#. c #FF7B35",
"$. c #F4783A",
"%. c #F97A3C",
"&. c #B26346",
"*. c #BA674A",
"=. c #BB7157",
"-. c #CE724E",
";. c #D3774F",
":. c #CC7C5C",
">. c #D57752",
",. c #D17D5B",
"<. c #EF7B45",
"1. c #F27C44",
"2. c #F17E48",
"3. c #FD8346",
"4. c #F58049",
"5. c #FF8448",
"6. c #CC8167",
"7. c #CB836A",
"8. c #DD9576",
"9. c #E18764",
"0. c #E48A68",
"q. c #E49574",
"w. c #9E978F",
"e. c #9F9A92",
"r. c #A0988F",
"t. c #A39B92",
"y. c #E19A82",
"u. c #EB9F84",
"i. c #EBA186",
"p. c #F7AE8F",
"a. c #FEAF8E",
"s. c #FDB393",
"d. c #E6DBCF",
"f. c #E3DDD3",
"g. c #DEE0D7",
"h. c #E2E1D7",
"j. c #EBE2D6",
"k. c #E6E3D8",
"l. c #E8E2D8",
"z. c #F7F7EC",
"x. c #F9F7EC",
"c. c #FCF9EE",
"v. c #FFFEF2",
/* pixels */
"g.,.3.5.5.5.5.5.5.5.3.5.5.5.5.5.5.5.5.3.5.5.3.5.5.5.3.5.#.s.x.c.v.f.;.3.5.5.5.5.5.5.5.5.5.5.5.5.5.5.5.5.5.3.5.5.5.5.3.3.5.#.a.z.",
"M N { Q E Q Q Q Q Q Q Q Q Q Q Q Q Q Q Q Q Q Q Q Q Q Q Q R >.y.r.t.m N } W Q Q Q E _ E Q Q Q Q E Q Q Q Q Q Q Q Q Q Q Q Q Q Q -.u.",
"- y p p p p i p p p i p p p p p p i i p p p i p p p p p y F !     % r a i p p p p i i i p p p p i p p p p i p p p p p p p y D ~ ",
"q y V s Z Z Z Z Z Z Z Z V Z Z s Z Z Z Z Z Z Z Z Z Z Z Z g E ' 2 3 7 y Z Z Z h V Z Z Z Z Z Z h Z Z Z Z h Z h V Z Z Z s Z Z h L @.",
"0 y Z h Z h h h h h h h a h h h h h h h h h h h h h h Z p I ` # @ < y Z h h h h h h h h h h h h h h h h Z h h h h h h h Z g L +.",
"0 y Z h h h h h h h h h h h h h h s h h h h h h h h s Z p Y ` # @ < y Z h h h h h h h h h h h h h h h h h h h h h h h h Z h L +.",
"0 y Z Z h h h h h h h h h h h h h Z h h Z s h h h Z h Z p Y ) # @ < y Z h h h h h h h Z h h h h h h h h h h h h h h h h Z a L +.",
"0 y Z Z h h h h h h h Z h h h h h h h h h h h h h h h Z g T ' # @ < y Z h h h h h h h h h h h h h h h h h h h h h h h V Z a L +.",
"0 y Z h h h h h h h h h Z h h h h Z s h h h h h Z s s Z p Y ` @ @ < y Z h h h h h h h h h h Z h h h h h h h h h h h h h Z g L +.",
"0 y Z h h h h h h h h h h h h h h h h h h h h h s s Z Z p Y ` # @ : y Z h h h h h h h h h h h h Z h h h h h h h h h h h V p L +.",
"0 y Z h Z h s h h h h h h h h h h h h h h Z h h Z s s Z p Y ` # # < y Z h h h h h h h h h h h h h h h h h h h h h h h h Z a L +.",
"0 y Z h h h Z h Z s h h h h h h h h h h h h h h Z s s V p Y ` # @ < y Z h h h h h h h h h h h h h h s Z h h h h h h h h Z s L +.",
"0 y Z Z h h h h h h h h h h h Z h h h h V s V s s s s G p R ` # @ : y Z Z h h h h h h h h h h h h h h h h Z h h h h h h V g I +.",
"0 y Z h h h h h h h h h h h h s h h h h s s s V s Z s s p Y ` # @ < y Z h h h h Z h h h h h h h h h h h h h h h h h h h Z p L +.",
"0 y Z Z s h h h h h h h h h h h h Z s s s s V a V V s s p Y ` # @ < y Z h h h h h h h h h h Z h h h h h h h h h h h h h Z a L +.",
"0 y Z h Z h h h h h Z h h h h h s Z s s V s a V V V k s p Y ` # @ < y Z h h h h h h h h h h h h h h h h h h h s Z h h h V a L O.",
"q y Z h h h h h h h h h h h s h h h h h h h h h s s s Z p R ` # @ : r s s s s s h h h s h h h h h h h h s s h h h h h h Z a K +.",
"- g Z Z Z Z Z Z Z Z Z Z Z Z Z V Z Z Z V h Z Z Z Z Z Z Z p T ' # @ : y G Z Z Z V Z Z Z Z Z Z Z Z Z Z Z Z Z V Z Z Z Z Z Z Z a U X.",
"l = g y y r y y y y y y r y y r r r y y y y y r y y y y e G G + @ , w y y y y y y r y y y y y r y r y y r y y y y y r y y d t *.",
"f.M % 7 : < < : < , < < : : : : : : : : : < : : : : : : : : X @ ; ; : : : , : : : : , < < : < , : : : : < < : : < < : : 6 % M h.",
"v.t.  2 + + + + + + + + + $ > ; # ; @ + + + + + O + + + + + + + O O + + + + + + + + + + + $ > # @ ; # O + + + + + + + + 2   t.v.",
"v.t.  8 , , < , < , , , , o   > @ + ; , , , , , : : , , , , , , , , , , , , , , , , , : 4 .   > @ + ; < , , , : , , , , 8   w.v.",
"h.:.%.2.1.1.1.1.1.1.1.1.1.q.v   ,   W 3.1.1.1.4.4.4.4.4.4.1.1.4.4.4.4.4.4.1.1.4.1.4.1.4.%.q.c   >   Q 5.1.1.1.1.1.4.1.1.4.o.p.x.",
"n B } Q ] ] _ ] _ ] { } ^ 9.6.o $ 1 H [ ] ] ] ] ] ] / ] ] ] ] ] ] / ] ] ] ] ] ] ] ] ] ] R 0.:.  > 1 J } { { { ] ] { ] ] } _ >.u.",
"- r p u i i i g p i i p y C ( : + < e p i i i i i i i i i p i i i i i i i y u u u i i i y S ( > @ : w p i i u u p u p u i y D ~ ",
"q y Z Z Z Z Z Z Z Z Z A h Y ' ; # , y Z Z Z Z Z G s Z h Z Z V Z V V Z Z Z G V V Z Z Z A h Y ` @ # < y A Z Z Z Z V V Z Z Z s P @.",
"0 y Z Z h h h h h h Z Z p I ' , @ < y Z h h h h h h s h h h h h s V s V h h s h h h h h g Y ` ; @ < y Z Z h h h s h h h Z p L +.",
"0 y Z h h h h h h h h Z p I ' ; + < y Z h h h h h h h h h h h Z s s s s h h h h h h h V a I ' @ @ : y Z h h h h Z h h h Z a L O.",
"0 y Z h h h h h h h Z Z p P ' , @ < y Z h h h h h h h h h h h h h h Z h h h h h h h h Z p I ' # @ < y Z h h h h h h h h Z a L O.",
"0 y Z h h h h h h h a Z p P ' ; + < y Z h h h h h h h h h h h h h h h h h h h h h h h Z g I ` @ ; : y Z h h h h h h h h Z p L O.",
"0 y Z h h h h h h h h Z p P ` , @ , y Z h h h h h h h h Z h h h h h h h h h h h h h h V s Y ` @ # < y Z h h h h h h h h Z s K +.",
"0 y Z h h Z h h h h h Z h P ' ; @ < y Z h h h h h h h h s h h h h h h h h s Z h h h h V a Y ' # @ < y Z h h Z h h h h V Z g L +.",
"0 y Z h h h h h h h h V p I ' ; + : y Z h h a Z h h h h Z h h h h h h h h h h h h h h V p I ` # @ < y Z h h h h h h h h Z p L O.",
"0 y Z s h h h h h h h Z h I ' , @ : y Z a h Z h h h h h h h h h h h h s h h s Z h h h Z h I ` # @ < y Z h h h h h h h h Z p L O.",
"0 y Z h h h h h h h Z Z i P ' , @ : y Z Z Z h h h h h h h h h h h h h Z h h h h h h s Z p I ` # # < y Z h h h h h h h h V s L O.",
"0 y Z a h h h h h h Z Z g P ) ; @ : y Z a h h h Z h h h h h h h h h h h h h h h h h h Z p I ` # @ < y Z h h h h h h h h V g K +.",
"0 y Z h h h h h h h h h p U ) , + : y Z Z h h h h h h h h h h h h h h h h h h h h h h Z p Y ' @ @ < y Z Z h h h h h h h Z g L +.",
"0 y Z h h s h h h h h h p P [ : @ : y Z a Z h h h h h h h h h h h h h h h Z h h h h h Z g I ` @ @ < y Z h h h h h h h h V p L +.",
"q y Z a s s s s s s a Z p U ) ; @ : y Z a Z h Z a h h h Z h h h h h h h h h h h h h Z Z a I ` # ; < y Z s h h h h h Z Z Z p L O.",
"- g Z Z Z h V Z Z Z Z Z a Y  ., @ < y Z Z Z Z Z Z Z Z Z Z Z Z Z Z Z Z Z Z Z Z Z Z Z Z Z s T ' # @ : y A Z Z Z Z Z Z Z Z Z a P X.",
"l = g y y y y y y y y y r V J ; + : w y y y y y y y y y y y y y y y y y y y y y y y u y e A G @ @ < w u y u y y y y y y y f 9 =.",
"j.b % 7 : : 1 1 : : : 1 : : X @ ; # , : < < < < < : < < < < : : : < < < < < < < < < < < : : X @ @ @ : < : : : : < < < : 1 % x k.",
"v.w.  2 @ @ + @ @ @ + @ @ @ @ + + + + @ @ @ @ @ @ @ @ @ @ > > @ ; ; # + @ + @ @ + # # + @ @ @ + + + + @ @ @ + @ @ @ @ @ 2   t.v.",
"v.t.  3 @ ; ; ; ; ; ; ; ; ; ; ; ; ; ; > # ; ; ; ; ; ; @ >     > @ + @ ; ; ; ; ; ; ; ; ; ; ; ; ; > ; ; @ ; ; ; ; ; ; # ; 3   w.v.",
"l.:.$.<.1.$.<.<.<.<.1.1.$.1.$.<.<.<.1.1.<.1.1.1.1.1.$.1.$.8.z   ,   W 1.1.1.1.1.1.1.1.1.$.1.1.1.1.$.1.<.1.1.1.1.1.1.1.1.2.o.p.x.",
"n B | ] { [ [ { ] ] ] ] { { { { { ` { [ _ _ } ` ] { { { ^ 0.7.  > 1 J | [ _ _ [ _ { { [ [ { [ [ { [ [ { [ [ { [ [ { [ } } { >.i.",
"- r p u u u i i i i i i i i i i u u u u u u u u i i u p r S ( > # < w i u i i i i i i p u i i i u p i i u u p u i u i i i y C ~ ",
"q y Z s V V s V V Z h h s V s V V V Z Z Z Z Z Z s V V Z p R ` # # , y A Z Z Z Z Z Z Z Z Z Z Z Z V Z Z Z Z Z Z Z V V Z Z Z h L @.",
"0 y Z h s s V s s s a Z a Z a Z s s s s s s s s s s s h p I ` # @ : y Z a V s s s s s V s s s Z s h h h h h h h h h h h h a K  .",
"0 y Z h s s s s s s h h h a Z a h h s s s s s s s s s Z p I ` # @ : y s s s s s s s s s s Z s s h h h h h h h h h h h h h a K  .",
"0 y Z s s s s V s s V a Z a a Z s a s h s s s s s s s h p I ` # @ : y V s s V s s V a s k V s s h h h h h h h h h h h h h a K  .",
"0 y Z s s s s s s s a h a Z a a h h a h s s s s s s s h p I ` # @ < y Z s s s s s s V V V V s s h h h s h h h h h h h h h a K +.",
"0 y Z a s s s s a V Z a Z a Z a s a h a s s s s s s s h p R ` # @ : y Z s s s s s s s s s s s s a s s h s h Z s h h h h h a K ..",
"0 y Z h s s s s h Z a Z a h a Z s s h s s s s s s s s h p I ` # @ < r V s s s s s s s s s s s Z s s h s h s s s s h h h Z a K ..",
"0 y Z h s s s s a Z Z a h a h a s s s s s s s a s s s h p R ` @ @ : y V s s s s s s V s s Z s s s V s s s s h s h s h s h p K  .",
"0 y Z a s V s s Z a a Z a Z a Z s h a s s s s s s s s h p I ` @ @ : y s s s s s s s s a s s s s s s s s s s s s s s s s h a K  .",
"0 y Z h a Z a Z a Z Z Z a a Z a s s s s s s s s s h h h p Y ` ; @ : y s s s s s s s s s s s s s s V s s s s s s s s s s h a K ..",
"0 y Z a V a Z a Z a a Z a Z Z a s s s s s s s s s a h h i Y ` @ @ 1 y h s s s s s s s s s s s s a s s s s s s s s s V s h a K  .",
"0 y Z a a h a Z V a Z a Z a a Z s s s s s s s s s s h h p Y ` # @ < y V s s s s s s s s s s s s s s s s s s s s s s s s h p K  .",
"0 y Z h a h h h p Z a Z a a Z a s s s s a s s s s s h h i Y ` @ @ : y s s s s s s s s s s s s s s s s s s s s s s s s s Z p K ..",
"q y Z a h h a a h a h Z Z p Z a s s s s s s s s s s s s i Y [ 3 3 6 y s a V V V s s s s s s s s s a h s s s s s h a s s s p J  .",
"= g Z Z Z Z Z Z Z Z Z Z Z Z Z Z Z s s Z Z s Z s h h a G p E )     % i V h k V V Z Z s s s Z s Z Z V h h Z V Z V Z V Z Z G p U X.",
"M = g y y y y y y y y y y y y y y y y y y y y i y y r y d t &.e.e.j = g y u e y y y y y y y y y y i y y y y y i y y y y y f 9 =.",
"k.x & 7 < < 1 < < 1 < < : 1 1 1 1 < < 1 5 1 : 1 : 5 : 5 * j d.v.v.j.j - 1 : : : < 1 1 1 < 5 1 : 5 : : 5 : 5 : : : 5 1 : 6 & x h."
};
